<svg class="normal_logo" xmlns="http://www.w3.org/2000/svg" version="1.2"  width="1550" height="660">
    <title>DonyayeCloud-Logo</title>
    <style>
        .yellow { fill: #FFB800 !important; } 
        .primary { fill: #007BFF !important; } 
        .text-main { fill: #FFFFFF !important; font-family: 'Segoe UI', Arial, sans-serif; font-weight: bold; }
        .text-sub { fill: #FFFFFF !important; font-family: 'Segoe UI', Arial, sans-serif; font-weight: 300; }
    </style>
    
    <g id="CloudIcon" transform="translate(50, 60)">
        <path class="primary" d="M120,40 C120,17.9 102.1,0 80,0 C63.5,0 49.3,10 43.1,24.4 C38.5,21.6 33,20 27,20 C12.1,20 0,32.1 0,47 C0,48.4 0.1,49.7 0.3,51 C20,51 110,51 120,51 L120,40 Z" />
        <path class="yellow" d="M20,60 C20,82.1 37.9,100 60,100 C76.5,100 90.7,90 96.9,75.6 C101.5,78.4 107,80 113,80 C127.9,80 140,67.9 140,53 C140,51.6 139.9,50.3 139.7,49 C120,49 30,49 20,49 L20,60 Z" />
    </g>

</svg>


